<?xml version="1.0" encoding="UTF-8" standalone="no"?>
<!DOCTYPE svg PUBLIC "-//W3C//DTD SVG 1.1//EN"
 "http://www.w3.org/Graphics/SVG/1.1/DTD/svg11.dtd">
<!-- Generated by graphviz version 2.43.0 (0)
 -->
<!-- Title: %3 Pages: 1 -->
<svg width="1295pt" height="831pt"
 viewBox="0.00 0.00 1295.00 830.50" xmlns="http://www.w3.org/2000/svg" xmlns:xlink="http://www.w3.org/1999/xlink">
<g id="graph0" class="graph" transform="scale(1 1) rotate(0) translate(4 826.5)">
<title>%3</title>
<polygon fill="white" stroke="transparent" points="-4,4 -4,-826.5 1291,-826.5 1291,4 -4,4"/>
<!-- bio_facts -->
<g id="node1" class="node">
<title>bio_facts</title>
<polygon fill="none" stroke="black" points="349,-304.5 349,-332.5 593,-332.5 593,-304.5 349,-304.5"/>
<text text-anchor="start" x="430.5" y="-315.7" font-family="Helvetica,sans-Serif" font-weight="bold" font-size="16.00">bio_facts</text>
<polygon fill="none" stroke="black" points="349,-279.5 349,-304.5 593,-304.5 593,-279.5 349,-279.5"/>
<text text-anchor="start" x="354" y="-289.3" font-family="Helvetica,sans-Serif" text-decoration="underline" font-size="14.00">id</text>
<text text-anchor="start" x="367" y="-289.3" font-family="Helvetica,sans-Serif" font-size="14.00"> </text>
<text text-anchor="start" x="372" y="-289.3" font-family="Helvetica,sans-Serif" font-size="14.00"> [INTEGER]</text>
<text text-anchor="start" x="449" y="-289.3" font-family="Helvetica,sans-Serif" font-size="14.00"> NOT NULL</text>
<polygon fill="none" stroke="black" points="349,-254.5 349,-279.5 593,-279.5 593,-254.5 349,-254.5"/>
<text text-anchor="start" x="354" y="-264.3" font-family="Helvetica,sans-Serif" font-size="14.00">date_end</text>
<text text-anchor="start" x="418" y="-264.3" font-family="Helvetica,sans-Serif" font-size="14.00"> </text>
<text text-anchor="start" x="423" y="-264.3" font-family="Helvetica,sans-Serif" font-size="14.00"> [DATE]</text>
<polygon fill="none" stroke="black" points="349,-229.5 349,-254.5 593,-254.5 593,-229.5 349,-229.5"/>
<text text-anchor="start" x="354" y="-239.3" font-family="Helvetica,sans-Serif" font-size="14.00">date_start</text>
<text text-anchor="start" x="424" y="-239.3" font-family="Helvetica,sans-Serif" font-size="14.00"> </text>
<text text-anchor="start" x="429" y="-239.3" font-family="Helvetica,sans-Serif" font-size="14.00"> [DATE]</text>
<polygon fill="none" stroke="black" points="349,-204.5 349,-229.5 593,-229.5 593,-204.5 349,-204.5"/>
<text text-anchor="start" x="354" y="-214.3" font-family="Helvetica,sans-Serif" font-size="14.00">embedding</text>
<text text-anchor="start" x="433" y="-214.3" font-family="Helvetica,sans-Serif" font-size="14.00"> </text>
<text text-anchor="start" x="438" y="-214.3" font-family="Helvetica,sans-Serif" font-size="14.00"> [VECTOR]</text>
<text text-anchor="start" x="505" y="-214.3" font-family="Helvetica,sans-Serif" font-size="14.00"> NOT NULL</text>
<polygon fill="none" stroke="black" points="349,-179.5 349,-204.5 593,-204.5 593,-179.5 349,-179.5"/>
<text text-anchor="start" x="354" y="-189.3" font-family="Helvetica,sans-Serif" font-size="14.00">fact_text</text>
<text text-anchor="start" x="415" y="-189.3" font-family="Helvetica,sans-Serif" font-size="14.00"> </text>
<text text-anchor="start" x="420" y="-189.3" font-family="Helvetica,sans-Serif" font-size="14.00"> [TEXT]</text>
<text text-anchor="start" x="470" y="-189.3" font-family="Helvetica,sans-Serif" font-size="14.00"> NOT NULL</text>
<polygon fill="none" stroke="black" points="349,-154.5 349,-179.5 593,-179.5 593,-154.5 349,-154.5"/>
<text text-anchor="start" x="354" y="-164.3" font-family="Helvetica,sans-Serif" font-size="14.00">location</text>
<text text-anchor="start" x="409" y="-164.3" font-family="Helvetica,sans-Serif" font-size="14.00"> </text>
<text text-anchor="start" x="414" y="-164.3" font-family="Helvetica,sans-Serif" font-size="14.00"> [VARCHAR(256)]</text>
<polygon fill="none" stroke="black" points="349,-129.5 349,-154.5 593,-154.5 593,-129.5 349,-129.5"/>
<text text-anchor="start" x="354" y="-139.3" font-family="Helvetica,sans-Serif" font-size="14.00">persona_id</text>
<text text-anchor="start" x="430" y="-139.3" font-family="Helvetica,sans-Serif" font-size="14.00"> </text>
<text text-anchor="start" x="435" y="-139.3" font-family="Helvetica,sans-Serif" font-size="14.00"> [INTEGER]</text>
<text text-anchor="start" x="512" y="-139.3" font-family="Helvetica,sans-Serif" font-size="14.00"> NOT NULL</text>
<polygon fill="none" stroke="black" points="349,-104.5 349,-129.5 593,-129.5 593,-104.5 349,-104.5"/>
<text text-anchor="start" x="354" y="-114.3" font-family="Helvetica,sans-Serif" font-size="14.00">source_id</text>
<text text-anchor="start" x="420" y="-114.3" font-family="Helvetica,sans-Serif" font-size="14.00"> </text>
<text text-anchor="start" x="425" y="-114.3" font-family="Helvetica,sans-Serif" font-size="14.00"> [INTEGER]</text>
<polygon fill="none" stroke="black" points="349,-79.5 349,-104.5 593,-104.5 593,-79.5 349,-79.5"/>
<text text-anchor="start" x="354" y="-89.3" font-family="Helvetica,sans-Serif" font-size="14.00">tags</text>
<text text-anchor="start" x="385" y="-89.3" font-family="Helvetica,sans-Serif" font-size="14.00"> </text>
<text text-anchor="start" x="390" y="-89.3" font-family="Helvetica,sans-Serif" font-size="14.00"> [JSON]</text>
</g>
<!-- personas -->
<g id="node2" class="node">
<title>personas</title>
<polygon fill="none" stroke="black" points="8,-408.5 8,-436.5 260,-436.5 260,-408.5 8,-408.5"/>
<text text-anchor="start" x="92.5" y="-419.7" font-family="Helvetica,sans-Serif" font-weight="bold" font-size="16.00">personas</text>
<polygon fill="none" stroke="black" points="8,-383.5 8,-408.5 260,-408.5 260,-383.5 8,-383.5"/>
<text text-anchor="start" x="13" y="-393.3" font-family="Helvetica,sans-Serif" text-decoration="underline" font-size="14.00">id</text>
<text text-anchor="start" x="26" y="-393.3" font-family="Helvetica,sans-Serif" font-size="14.00"> </text>
<text text-anchor="start" x="31" y="-393.3" font-family="Helvetica,sans-Serif" font-size="14.00"> [INTEGER]</text>
<text text-anchor="start" x="108" y="-393.3" font-family="Helvetica,sans-Serif" font-size="14.00"> NOT NULL</text>
<polygon fill="none" stroke="black" points="8,-358.5 8,-383.5 260,-383.5 260,-358.5 8,-358.5"/>
<text text-anchor="start" x="13" y="-368.3" font-family="Helvetica,sans-Serif" font-size="14.00">name</text>
<text text-anchor="start" x="53" y="-368.3" font-family="Helvetica,sans-Serif" font-size="14.00"> </text>
<text text-anchor="start" x="58" y="-368.3" font-family="Helvetica,sans-Serif" font-size="14.00"> [VARCHAR(255)]</text>
<text text-anchor="start" x="179" y="-368.3" font-family="Helvetica,sans-Serif" font-size="14.00"> NOT NULL</text>
<polygon fill="none" stroke="black" points="8,-333.5 8,-358.5 260,-358.5 260,-333.5 8,-333.5"/>
<text text-anchor="start" x="13" y="-343.3" font-family="Helvetica,sans-Serif" font-size="14.00">style_prompt</text>
<text text-anchor="start" x="104" y="-343.3" font-family="Helvetica,sans-Serif" font-size="14.00"> </text>
<text text-anchor="start" x="109" y="-343.3" font-family="Helvetica,sans-Serif" font-size="14.00"> [TEXT]</text>
<polygon fill="none" stroke="black" points="8,-308.5 8,-333.5 260,-333.5 260,-308.5 8,-308.5"/>
<text text-anchor="start" x="13" y="-318.3" font-family="Helvetica,sans-Serif" font-size="14.00">top_phrases</text>
<text text-anchor="start" x="98" y="-318.3" font-family="Helvetica,sans-Serif" font-size="14.00"> </text>
<text text-anchor="start" x="103" y="-318.3" font-family="Helvetica,sans-Serif" font-size="14.00"> [JSON]</text>
</g>
<!-- personas&#45;&#45;bio_facts -->
<g id="edge1" class="edge">
<title>personas:id&#45;&#45;bio_facts:persona_id</title>
<path fill="none" stroke="#7f7f7f" stroke-dasharray="5,2" d="M261,-396.5C380.75,-396.5 228.25,-141.5 348,-141.5"/>
<text text-anchor="start" x="317" y="-130.3" font-family="Times,serif" font-size="14.00">0..N</text>
<text text-anchor="start" x="261" y="-385.3" font-family="Times,serif" font-size="14.00">1</text>
</g>
<!-- conversations -->
<g id="node4" class="node">
<title>conversations</title>
<polygon fill="none" stroke="black" points="349,-459.5 349,-487.5 593,-487.5 593,-459.5 349,-459.5"/>
<text text-anchor="start" x="407.5" y="-470.7" font-family="Helvetica,sans-Serif" font-weight="bold" font-size="16.00">conversations</text>
<polygon fill="none" stroke="black" points="349,-434.5 349,-459.5 593,-459.5 593,-434.5 349,-434.5"/>
<text text-anchor="start" x="354" y="-444.3" font-family="Helvetica,sans-Serif" text-decoration="underline" font-size="14.00">id</text>
<text text-anchor="start" x="367" y="-444.3" font-family="Helvetica,sans-Serif" font-size="14.00"> </text>
<text text-anchor="start" x="372" y="-444.3" font-family="Helvetica,sans-Serif" font-size="14.00"> [INTEGER]</text>
<text text-anchor="start" x="449" y="-444.3" font-family="Helvetica,sans-Serif" font-size="14.00"> NOT NULL</text>
<polygon fill="none" stroke="black" points="349,-409.5 349,-434.5 593,-434.5 593,-409.5 349,-409.5"/>
<text text-anchor="start" x="354" y="-419.3" font-family="Helvetica,sans-Serif" font-size="14.00">created_at</text>
<text text-anchor="start" x="427" y="-419.3" font-family="Helvetica,sans-Serif" font-size="14.00"> </text>
<text text-anchor="start" x="432" y="-419.3" font-family="Helvetica,sans-Serif" font-size="14.00"> [TIMESTAMP]</text>
<polygon fill="none" stroke="black" points="349,-384.5 349,-409.5 593,-409.5 593,-384.5 349,-384.5"/>
<text text-anchor="start" x="354" y="-394.3" font-family="Helvetica,sans-Serif" font-size="14.00">persona_id</text>
<text text-anchor="start" x="430" y="-394.3" font-family="Helvetica,sans-Serif" font-size="14.00"> </text>
<text text-anchor="start" x="435" y="-394.3" font-family="Helvetica,sans-Serif" font-size="14.00"> [INTEGER]</text>
<text text-anchor="start" x="512" y="-394.3" font-family="Helvetica,sans-Serif" font-size="14.00"> NOT NULL</text>
<polygon fill="none" stroke="black" points="349,-359.5 349,-384.5 593,-384.5 593,-359.5 349,-359.5"/>
<text text-anchor="start" x="354" y="-369.3" font-family="Helvetica,sans-Serif" font-size="14.00">title</text>
<text text-anchor="start" x="381" y="-369.3" font-family="Helvetica,sans-Serif" font-size="14.00"> </text>
<text text-anchor="start" x="386" y="-369.3" font-family="Helvetica,sans-Serif" font-size="14.00"> [VARCHAR(255)]</text>
</g>
<!-- personas&#45;&#45;conversations -->
<g id="edge3" class="edge">
<title>personas:id&#45;&#45;conversations:persona_id</title>
<path fill="none" stroke="#7f7f7f" stroke-dasharray="5,2" d="M261,-396.5C299.67,-396.5 309.33,-396.5 348,-396.5"/>
<text text-anchor="start" x="317" y="-385.3" font-family="Times,serif" font-size="14.00">0..N</text>
<text text-anchor="start" x="261" y="-400.3" font-family="Times,serif" font-size="14.00">1</text>
</g>
<!-- documents -->
<g id="node5" class="node">
<title>documents</title>
<polygon fill="none" stroke="black" points="349,-713.5 349,-741.5 593,-741.5 593,-713.5 349,-713.5"/>
<text text-anchor="start" x="421" y="-724.7" font-family="Helvetica,sans-Serif" font-weight="bold" font-size="16.00">documents</text>
<polygon fill="none" stroke="black" points="349,-688.5 349,-713.5 593,-713.5 593,-688.5 349,-688.5"/>
<text text-anchor="start" x="354" y="-698.3" font-family="Helvetica,sans-Serif" text-decoration="underline" font-size="14.00">id</text>
<text text-anchor="start" x="367" y="-698.3" font-family="Helvetica,sans-Serif" font-size="14.00"> </text>
<text text-anchor="start" x="372" y="-698.3" font-family="Helvetica,sans-Serif" font-size="14.00"> [INTEGER]</text>
<text text-anchor="start" x="449" y="-698.3" font-family="Helvetica,sans-Serif" font-size="14.00"> NOT NULL</text>
<polygon fill="none" stroke="black" points="349,-663.5 349,-688.5 593,-688.5 593,-663.5 349,-663.5"/>
<text text-anchor="start" x="354" y="-673.3" font-family="Helvetica,sans-Serif" font-size="14.00">content_type</text>
<text text-anchor="start" x="445" y="-673.3" font-family="Helvetica,sans-Serif" font-size="14.00"> </text>
<text text-anchor="start" x="450" y="-673.3" font-family="Helvetica,sans-Serif" font-size="14.00"> [VARCHAR(32)]</text>
<polygon fill="none" stroke="black" points="349,-638.5 349,-663.5 593,-663.5 593,-638.5 349,-638.5"/>
<text text-anchor="start" x="354" y="-648.3" font-family="Helvetica,sans-Serif" font-size="14.00">created_at</text>
<text text-anchor="start" x="427" y="-648.3" font-family="Helvetica,sans-Serif" font-size="14.00"> </text>
<text text-anchor="start" x="432" y="-648.3" font-family="Helvetica,sans-Serif" font-size="14.00"> [TIMESTAMP]</text>
<polygon fill="none" stroke="black" points="349,-613.5 349,-638.5 593,-638.5 593,-613.5 349,-613.5"/>
<text text-anchor="start" x="354" y="-623.3" font-family="Helvetica,sans-Serif" font-size="14.00">doc_type</text>
<text text-anchor="start" x="417" y="-623.3" font-family="Helvetica,sans-Serif" font-size="14.00"> </text>
<text text-anchor="start" x="422" y="-623.3" font-family="Helvetica,sans-Serif" font-size="14.00"> [VARCHAR(32)]</text>
<polygon fill="none" stroke="black" points="349,-588.5 349,-613.5 593,-613.5 593,-588.5 349,-588.5"/>
<text text-anchor="start" x="354" y="-598.3" font-family="Helvetica,sans-Serif" font-size="14.00">meta</text>
<text text-anchor="start" x="390" y="-598.3" font-family="Helvetica,sans-Serif" font-size="14.00"> </text>
<text text-anchor="start" x="395" y="-598.3" font-family="Helvetica,sans-Serif" font-size="14.00"> [JSON]</text>
<polygon fill="none" stroke="black" points="349,-563.5 349,-588.5 593,-588.5 593,-563.5 349,-563.5"/>
<text text-anchor="start" x="354" y="-573.3" font-family="Helvetica,sans-Serif" font-size="14.00">persona_id</text>
<text text-anchor="start" x="430" y="-573.3" font-family="Helvetica,sans-Serif" font-size="14.00"> </text>
<text text-anchor="start" x="435" y="-573.3" font-family="Helvetica,sans-Serif" font-size="14.00"> [INTEGER]</text>
<text text-anchor="start" x="512" y="-573.3" font-family="Helvetica,sans-Serif" font-size="14.00"> NOT NULL</text>
<polygon fill="none" stroke="black" points="349,-538.5 349,-563.5 593,-563.5 593,-538.5 349,-538.5"/>
<text text-anchor="start" x="354" y="-548.3" font-family="Helvetica,sans-Serif" font-size="14.00">source</text>
<text text-anchor="start" x="400" y="-548.3" font-family="Helvetica,sans-Serif" font-size="14.00"> </text>
<text text-anchor="start" x="405" y="-548.3" font-family="Helvetica,sans-Serif" font-size="14.00"> [VARCHAR(1024)]</text>
<polygon fill="none" stroke="black" points="349,-513.5 349,-538.5 593,-538.5 593,-513.5 349,-513.5"/>
<text text-anchor="start" x="354" y="-523.3" font-family="Helvetica,sans-Serif" font-size="14.00">title</text>
<text text-anchor="start" x="381" y="-523.3" font-family="Helvetica,sans-Serif" font-size="14.00"> </text>
<text text-anchor="start" x="386" y="-523.3" font-family="Helvetica,sans-Serif" font-size="14.00"> [VARCHAR(512)]</text>
</g>
<!-- personas&#45;&#45;documents -->
<g id="edge4" class="edge">
<title>personas:id&#45;&#45;documents:persona_id</title>
<path fill="none" stroke="#7f7f7f" stroke-dasharray="5,2" d="M261,-396.5C349.45,-396.5 259.55,-575.5 348,-575.5"/>
<text text-anchor="start" x="317" y="-564.3" font-family="Times,serif" font-size="14.00">0..N</text>
<text text-anchor="start" x="251" y="-385.3" font-family="Times,serif" font-size="14.00">1</text>
</g>
<!-- bio_sources -->
<g id="node3" class="node">
<title>bio_sources</title>
<polygon fill="none" stroke="black" points="8,-128.5 8,-156.5 260,-156.5 260,-128.5 8,-128.5"/>
<text text-anchor="start" x="80.5" y="-139.7" font-family="Helvetica,sans-Serif" font-weight="bold" font-size="16.00">bio_sources</text>
<polygon fill="none" stroke="black" points="8,-103.5 8,-128.5 260,-128.5 260,-103.5 8,-103.5"/>
<text text-anchor="start" x="13" y="-113.3" font-family="Helvetica,sans-Serif" text-decoration="underline" font-size="14.00">id</text>
<text text-anchor="start" x="26" y="-113.3" font-family="Helvetica,sans-Serif" font-size="14.00"> </text>
<text text-anchor="start" x="31" y="-113.3" font-family="Helvetica,sans-Serif" font-size="14.00"> [INTEGER]</text>
<text text-anchor="start" x="108" y="-113.3" font-family="Helvetica,sans-Serif" font-size="14.00"> NOT NULL</text>
<polygon fill="none" stroke="black" points="8,-78.5 8,-103.5 260,-103.5 260,-78.5 8,-78.5"/>
<text text-anchor="start" x="13" y="-88.3" font-family="Helvetica,sans-Serif" font-size="14.00">license</text>
<text text-anchor="start" x="62" y="-88.3" font-family="Helvetica,sans-Serif" font-size="14.00"> </text>
<text text-anchor="start" x="67" y="-88.3" font-family="Helvetica,sans-Serif" font-size="14.00"> [VARCHAR(128)]</text>
<polygon fill="none" stroke="black" points="8,-53.5 8,-78.5 260,-78.5 260,-53.5 8,-53.5"/>
<text text-anchor="start" x="13" y="-63.3" font-family="Helvetica,sans-Serif" font-size="14.00">name</text>
<text text-anchor="start" x="53" y="-63.3" font-family="Helvetica,sans-Serif" font-size="14.00"> </text>
<text text-anchor="start" x="58" y="-63.3" font-family="Helvetica,sans-Serif" font-size="14.00"> [VARCHAR(256)]</text>
<text text-anchor="start" x="179" y="-63.3" font-family="Helvetica,sans-Serif" font-size="14.00"> NOT NULL</text>
<polygon fill="none" stroke="black" points="8,-28.5 8,-53.5 260,-53.5 260,-28.5 8,-28.5"/>
<text text-anchor="start" x="13" y="-38.3" font-family="Helvetica,sans-Serif" font-size="14.00">reliability</text>
<text text-anchor="start" x="77" y="-38.3" font-family="Helvetica,sans-Serif" font-size="14.00"> </text>
<text text-anchor="start" x="82" y="-38.3" font-family="Helvetica,sans-Serif" font-size="14.00"> [DOUBLE PRECISION]</text>
<polygon fill="none" stroke="black" points="8,-3.5 8,-28.5 260,-28.5 260,-3.5 8,-3.5"/>
<text text-anchor="start" x="13" y="-13.3" font-family="Helvetica,sans-Serif" font-size="14.00">url</text>
<text text-anchor="start" x="32" y="-13.3" font-family="Helvetica,sans-Serif" font-size="14.00"> </text>
<text text-anchor="start" x="37" y="-13.3" font-family="Helvetica,sans-Serif" font-size="14.00"> [VARCHAR(1024)]</text>
</g>
<!-- bio_sources&#45;&#45;bio_facts -->
<g id="edge2" class="edge">
<title>bio_sources:id&#45;&#45;bio_facts:source_id</title>
<path fill="none" stroke="#7f7f7f" stroke-dasharray="5,2" d="M261,-116.5C299.67,-116.5 309.33,-116.5 348,-116.5"/>
<text text-anchor="start" x="317" y="-105.3" font-family="Times,serif" font-size="14.00">0..N</text>
<text text-anchor="start" x="261" y="-105.3" font-family="Times,serif" font-size="14.00">{0,1}</text>
</g>
<!-- messages -->
<g id="node7" class="node">
<title>messages</title>
<polygon fill="none" stroke="black" points="682.5,-510.5 682.5,-538.5 959.5,-538.5 959.5,-510.5 682.5,-510.5"/>
<text text-anchor="start" x="776.5" y="-521.7" font-family="Helvetica,sans-Serif" font-weight="bold" font-size="16.00">messages</text>
<polygon fill="none" stroke="black" points="682.5,-485.5 682.5,-510.5 959.5,-510.5 959.5,-485.5 682.5,-485.5"/>
<text text-anchor="start" x="687.5" y="-495.3" font-family="Helvetica,sans-Serif" text-decoration="underline" font-size="14.00">id</text>
<text text-anchor="start" x="700.5" y="-495.3" font-family="Helvetica,sans-Serif" font-size="14.00"> </text>
<text text-anchor="start" x="705.5" y="-495.3" font-family="Helvetica,sans-Serif" font-size="14.00"> [INTEGER]</text>
<text text-anchor="start" x="782.5" y="-495.3" font-family="Helvetica,sans-Serif" font-size="14.00"> NOT NULL</text>
<polygon fill="none" stroke="black" points="682.5,-460.5 682.5,-485.5 959.5,-485.5 959.5,-460.5 682.5,-460.5"/>
<text text-anchor="start" x="687.5" y="-470.3" font-family="Helvetica,sans-Serif" font-size="14.00">content</text>
<text text-anchor="start" x="740.5" y="-470.3" font-family="Helvetica,sans-Serif" font-size="14.00"> </text>
<text text-anchor="start" x="745.5" y="-470.3" font-family="Helvetica,sans-Serif" font-size="14.00"> [TEXT]</text>
<text text-anchor="start" x="795.5" y="-470.3" font-family="Helvetica,sans-Serif" font-size="14.00"> NOT NULL</text>
<polygon fill="none" stroke="black" points="682.5,-435.5 682.5,-460.5 959.5,-460.5 959.5,-435.5 682.5,-435.5"/>
<text text-anchor="start" x="687.5" y="-445.3" font-family="Helvetica,sans-Serif" font-size="14.00">conversation_id</text>
<text text-anchor="start" x="796.5" y="-445.3" font-family="Helvetica,sans-Serif" font-size="14.00"> </text>
<text text-anchor="start" x="801.5" y="-445.3" font-family="Helvetica,sans-Serif" font-size="14.00"> [INTEGER]</text>
<text text-anchor="start" x="878.5" y="-445.3" font-family="Helvetica,sans-Serif" font-size="14.00"> NOT NULL</text>
<polygon fill="none" stroke="black" points="682.5,-410.5 682.5,-435.5 959.5,-435.5 959.5,-410.5 682.5,-410.5"/>
<text text-anchor="start" x="687.5" y="-420.3" font-family="Helvetica,sans-Serif" font-size="14.00">created_at</text>
<text text-anchor="start" x="760.5" y="-420.3" font-family="Helvetica,sans-Serif" font-size="14.00"> </text>
<text text-anchor="start" x="765.5" y="-420.3" font-family="Helvetica,sans-Serif" font-size="14.00"> [TIMESTAMP]</text>
<polygon fill="none" stroke="black" points="682.5,-385.5 682.5,-410.5 959.5,-410.5 959.5,-385.5 682.5,-385.5"/>
<text text-anchor="start" x="687.5" y="-395.3" font-family="Helvetica,sans-Serif" font-size="14.00">role</text>
<text text-anchor="start" x="713.5" y="-395.3" font-family="Helvetica,sans-Serif" font-size="14.00"> </text>
<text text-anchor="start" x="718.5" y="-395.3" font-family="Helvetica,sans-Serif" font-size="14.00"> [VARCHAR(20)]</text>
<text text-anchor="start" x="830.5" y="-395.3" font-family="Helvetica,sans-Serif" font-size="14.00"> NOT NULL</text>
</g>
<!-- conversations&#45;&#45;messages -->
<g id="edge6" class="edge">
<title>conversations:id&#45;&#45;messages:conversation_id</title>
<path fill="none" stroke="#7f7f7f" stroke-dasharray="5,2" d="M594,-447.5C632.89,-447.5 642.61,-447.5 681.5,-447.5"/>
<text text-anchor="start" x="650.5" y="-436.3" font-family="Times,serif" font-size="14.00">0..N</text>
<text text-anchor="start" x="594" y="-436.3" font-family="Times,serif" font-size="14.00">1</text>
</g>
<!-- chunks -->
<g id="node6" class="node">
<title>chunks</title>
<polygon fill="none" stroke="black" points="691.5,-764.5 691.5,-792.5 949.5,-792.5 949.5,-764.5 691.5,-764.5"/>
<text text-anchor="start" x="788.5" y="-775.7" font-family="Helvetica,sans-Serif" font-weight="bold" font-size="16.00">chunks</text>
<polygon fill="none" stroke="black" points="691.5,-739.5 691.5,-764.5 949.5,-764.5 949.5,-739.5 691.5,-739.5"/>
<text text-anchor="start" x="696.5" y="-749.3" font-family="Helvetica,sans-Serif" text-decoration="underline" font-size="14.00">id</text>
<text text-anchor="start" x="709.5" y="-749.3" font-family="Helvetica,sans-Serif" font-size="14.00"> </text>
<text text-anchor="start" x="714.5" y="-749.3" font-family="Helvetica,sans-Serif" font-size="14.00"> [INTEGER]</text>
<text text-anchor="start" x="791.5" y="-749.3" font-family="Helvetica,sans-Serif" font-size="14.00"> NOT NULL</text>
<polygon fill="none" stroke="black" points="691.5,-714.5 691.5,-739.5 949.5,-739.5 949.5,-714.5 691.5,-714.5"/>
<text text-anchor="start" x="696.5" y="-724.3" font-family="Helvetica,sans-Serif" font-size="14.00">created_at</text>
<text text-anchor="start" x="769.5" y="-724.3" font-family="Helvetica,sans-Serif" font-size="14.00"> </text>
<text text-anchor="start" x="774.5" y="-724.3" font-family="Helvetica,sans-Serif" font-size="14.00"> [TIMESTAMP]</text>
<polygon fill="none" stroke="black" points="691.5,-689.5 691.5,-714.5 949.5,-714.5 949.5,-689.5 691.5,-689.5"/>
<text text-anchor="start" x="696.5" y="-699.3" font-family="Helvetica,sans-Serif" font-size="14.00">document_id</text>
<text text-anchor="start" x="786.5" y="-699.3" font-family="Helvetica,sans-Serif" font-size="14.00"> </text>
<text text-anchor="start" x="791.5" y="-699.3" font-family="Helvetica,sans-Serif" font-size="14.00"> [INTEGER]</text>
<text text-anchor="start" x="868.5" y="-699.3" font-family="Helvetica,sans-Serif" font-size="14.00"> NOT NULL</text>
<polygon fill="none" stroke="black" points="691.5,-664.5 691.5,-689.5 949.5,-689.5 949.5,-664.5 691.5,-664.5"/>
<text text-anchor="start" x="696.5" y="-674.3" font-family="Helvetica,sans-Serif" font-size="14.00">order</text>
<text text-anchor="start" x="733.5" y="-674.3" font-family="Helvetica,sans-Serif" font-size="14.00"> </text>
<text text-anchor="start" x="738.5" y="-674.3" font-family="Helvetica,sans-Serif" font-size="14.00"> [INTEGER]</text>
<text text-anchor="start" x="815.5" y="-674.3" font-family="Helvetica,sans-Serif" font-size="14.00"> NOT NULL</text>
<polygon fill="none" stroke="black" points="691.5,-639.5 691.5,-664.5 949.5,-664.5 949.5,-639.5 691.5,-639.5"/>
<text text-anchor="start" x="696.5" y="-649.3" font-family="Helvetica,sans-Serif" font-size="14.00">text</text>
<text text-anchor="start" x="724.5" y="-649.3" font-family="Helvetica,sans-Serif" font-size="14.00"> </text>
<text text-anchor="start" x="729.5" y="-649.3" font-family="Helvetica,sans-Serif" font-size="14.00"> [TEXT]</text>
<text text-anchor="start" x="779.5" y="-649.3" font-family="Helvetica,sans-Serif" font-size="14.00"> NOT NULL</text>
</g>
<!-- documents&#45;&#45;chunks -->
<g id="edge5" class="edge">
<title>documents:id&#45;&#45;chunks:document_id</title>
<path fill="none" stroke="#7f7f7f" stroke-dasharray="5,2" d="M594,-701.5C636.89,-701.5 647.61,-701.5 690.5,-701.5"/>
<text text-anchor="start" x="659.5" y="-690.3" font-family="Times,serif" font-size="14.00">0..N</text>
<text text-anchor="start" x="594" y="-690.3" font-family="Times,serif" font-size="14.00">1</text>
</g>
<!-- embeddings -->
<g id="node8" class="node">
<title>embeddings</title>
<polygon fill="none" stroke="black" points="1048.5,-790.5 1048.5,-818.5 1279.5,-818.5 1279.5,-790.5 1048.5,-790.5"/>
<text text-anchor="start" x="1109.5" y="-801.7" font-family="Helvetica,sans-Serif" font-weight="bold" font-size="16.00">embeddings</text>
<polygon fill="none" stroke="black" points="1048.5,-765.5 1048.5,-790.5 1279.5,-790.5 1279.5,-765.5 1048.5,-765.5"/>
<text text-anchor="start" x="1053.5" y="-775.3" font-family="Helvetica,sans-Serif" text-decoration="underline" font-size="14.00">id</text>
<text text-anchor="start" x="1066.5" y="-775.3" font-family="Helvetica,sans-Serif" font-size="14.00"> </text>
<text text-anchor="start" x="1071.5" y="-775.3" font-family="Helvetica,sans-Serif" font-size="14.00"> [INTEGER]</text>
<text text-anchor="start" x="1148.5" y="-775.3" font-family="Helvetica,sans-Serif" font-size="14.00"> NOT NULL</text>
<polygon fill="none" stroke="black" points="1048.5,-740.5 1048.5,-765.5 1279.5,-765.5 1279.5,-740.5 1048.5,-740.5"/>
<text text-anchor="start" x="1053.5" y="-750.3" font-family="Helvetica,sans-Serif" font-size="14.00">chunk_id</text>
<text text-anchor="start" x="1116.5" y="-750.3" font-family="Helvetica,sans-Serif" font-size="14.00"> </text>
<text text-anchor="start" x="1121.5" y="-750.3" font-family="Helvetica,sans-Serif" font-size="14.00"> [INTEGER]</text>
<text text-anchor="start" x="1198.5" y="-750.3" font-family="Helvetica,sans-Serif" font-size="14.00"> NOT NULL</text>
<polygon fill="none" stroke="black" points="1048.5,-715.5 1048.5,-740.5 1279.5,-740.5 1279.5,-715.5 1048.5,-715.5"/>
<text text-anchor="start" x="1053.5" y="-725.3" font-family="Helvetica,sans-Serif" font-size="14.00">created_at</text>
<text text-anchor="start" x="1126.5" y="-725.3" font-family="Helvetica,sans-Serif" font-size="14.00"> </text>
<text text-anchor="start" x="1131.5" y="-725.3" font-family="Helvetica,sans-Serif" font-size="14.00"> [TIMESTAMP]</text>
<polygon fill="none" stroke="black" points="1048.5,-690.5 1048.5,-715.5 1279.5,-715.5 1279.5,-690.5 1048.5,-690.5"/>
<text text-anchor="start" x="1053.5" y="-700.3" font-family="Helvetica,sans-Serif" font-size="14.00">vector</text>
<text text-anchor="start" x="1097.5" y="-700.3" font-family="Helvetica,sans-Serif" font-size="14.00"> </text>
<text text-anchor="start" x="1102.5" y="-700.3" font-family="Helvetica,sans-Serif" font-size="14.00"> [VECTOR]</text>
<text text-anchor="start" x="1171.5" y="-700.3" font-family="Helvetica,sans-Serif" font-size="14.00"> NOT NULL</text>
</g>
<!-- chunks&#45;&#45;embeddings -->
<g id="edge7" class="edge">
<title>chunks:id&#45;&#45;embeddings:chunk_id</title>
<path fill="none" stroke="#7f7f7f" stroke-dasharray="5,2" d="M950.5,-752.5C993.61,-752.5 1004.39,-752.5 1047.5,-752.5"/>
<text text-anchor="start" x="1016.5" y="-741.3" font-family="Times,serif" font-size="14.00">0..N</text>
<text text-anchor="start" x="950.5" y="-741.3" font-family="Times,serif" font-size="14.00">1</text>
</g>
</g>
</svg>
